{
	"asset":{
		"generator":"Khronos glTF Blender I/O v4.2.70",
		"version":"2.0"
	},
	"scene":0,
	"scenes":[
		{
			"name":"Scene",
			"nodes":[
				0,
				1,
				2,
				3
			]
		}
	],
	"nodes":[
		{
			"mesh":0,
			"name":"farmland"
		},
		{
			"mesh":1,
			"name":"grain",
			"rotation":[
				0,
				-0.3826834261417389,
				0,
				0.9238795638084412
			],
			"translation":[
				-1.3419264554977417,
				0.6000000238418579,
				-2.1890037059783936
			]
		},
		{
			"mesh":2,
			"name":"fence_corner",
			"scale":[
				0.125,
				0.5,
				0.125
			],
			"translation":[
				-4.5,
				0.5,
				1.4866254329681396
			]
		},
		{
			"mesh":3,
			"name":"fence_straight",
			"rotation":[
				0,
				0,
				-0.06375694274902344,
				0.9979655742645264
			],
			"scale":[
				0.125,
				0.5,
				0.125
			],
			"translation":[
				4.5,
				0.3560592830181122,
				4.486625671386719
			]
		}
	],
	"materials":[
		{
			"doubleSided":true,
			"emissiveFactor":[
				1,
				1,
				1
			],
			"emissiveTexture":{
				"index":0
			},
			"name":"farmland",
			"pbrMetallicRoughness":{
				"baseColorFactor":[
					0,
					0,
					0,
					1
				]
			}
		}
	],
	"meshes":[
		{
			"name":"Plane",
			"primitives":[
				{
					"attributes":{
						"POSITION":0,
						"NORMAL":1,
						"TEXCOORD_0":2
					},
					"indices":3,
					"material":0
				}
			]
		},
		{
			"name":"Plane.036",
			"primitives":[
				{
					"attributes":{
						"POSITION":4,
						"NORMAL":5,
						"TEXCOORD_0":6
					},
					"indices":7,
					"material":0
				}
			]
		},
		{
			"name":"Cube",
			"primitives":[
				{
					"attributes":{
						"POSITION":8,
						"NORMAL":9,
						"TEXCOORD_0":10
					},
					"indices":11,
					"material":0
				}
			]
		},
		{
			"name":"Cube.027",
			"primitives":[
				{
					"attributes":{
						"POSITION":12,
						"NORMAL":13,
						"TEXCOORD_0":14
					},
					"indices":15,
					"material":0
				}
			]
		}
	],
	"textures":[
		{
			"sampler":0,
			"source":0
		}
	],
	"images":[
		{
			"mimeType":"image/png",
			"name":"buildings",
			"uri":"buildings.png"
		}
	],
	"accessors":[
		{
			"bufferView":0,
			"componentType":5126,
			"count":20,
			"max":[
				4.099999904632568,
				0.10000000149011612,
				4.099999904632568
			],
			"min":[
				-4.099999904632568,
				0,
				-4.099999904632568
			],
			"type":"VEC3"
		},
		{
			"bufferView":1,
			"componentType":5126,
			"count":20,
			"type":"VEC3"
		},
		{
			"bufferView":2,
			"componentType":5126,
			"count":20,
			"type":"VEC2"
		},
		{
			"bufferView":3,
			"componentType":5123,
			"count":30,
			"type":"SCALAR"
		},
		{
			"bufferView":4,
			"componentType":5126,
			"count":352,
			"max":[
				7.661129474639893,
				0.5,
				6.049273490905762
			],
			"min":[
				-2.552910804748535,
				-0.5,
				-4.782243251800537
			],
			"type":"VEC3"
		},
		{
			"bufferView":5,
			"componentType":5126,
			"count":352,
			"type":"VEC3"
		},
		{
			"bufferView":6,
			"componentType":5126,
			"count":352,
			"type":"VEC2"
		},
		{
			"bufferView":7,
			"componentType":5123,
			"count":528,
			"type":"SCALAR"
		},
		{
			"bufferView":8,
			"componentType":5126,
			"count":176,
			"max":[
				25.142663955688477,
				1,
				1
			],
			"min":[
				-1,
				-1,
				-49
			],
			"type":"VEC3"
		},
		{
			"bufferView":9,
			"componentType":5126,
			"count":176,
			"type":"VEC3"
		},
		{
			"bufferView":10,
			"componentType":5126,
			"count":176,
			"type":"VEC2"
		},
		{
			"bufferView":11,
			"componentType":5123,
			"count":264,
			"type":"SCALAR"
		},
		{
			"bufferView":12,
			"componentType":5126,
			"count":160,
			"max":[
				1.3543500900268555,
				1.3092246055603027,
				1
			],
			"min":[
				-1.647425651550293,
				-1,
				-73
			],
			"type":"VEC3"
		},
		{
			"bufferView":13,
			"componentType":5126,
			"count":160,
			"type":"VEC3"
		},
		{
			"bufferView":14,
			"componentType":5126,
			"count":160,
			"type":"VEC2"
		},
		{
			"bufferView":15,
			"componentType":5123,
			"count":240,
			"type":"SCALAR"
		}
	],
	"bufferViews":[
		{
			"buffer":0,
			"byteLength":240,
			"byteOffset":0,
			"target":34962
		},
		{
			"buffer":0,
			"byteLength":240,
			"byteOffset":240,
			"target":34962
		},
		{
			"buffer":0,
			"byteLength":160,
			"byteOffset":480,
			"target":34962
		},
		{
			"buffer":0,
			"byteLength":60,
			"byteOffset":640,
			"target":34963
		},
		{
			"buffer":0,
			"byteLength":4224,
			"byteOffset":700,
			"target":34962
		},
		{
			"buffer":0,
			"byteLength":4224,
			"byteOffset":4924,
			"target":34962
		},
		{
			"buffer":0,
			"byteLength":2816,
			"byteOffset":9148,
			"target":34962
		},
		{
			"buffer":0,
			"byteLength":1056,
			"byteOffset":11964,
			"target":34963
		},
		{
			"buffer":0,
			"byteLength":2112,
			"byteOffset":13020,
			"target":34962
		},
		{
			"buffer":0,
			"byteLength":2112,
			"byteOffset":15132,
			"target":34962
		},
		{
			"buffer":0,
			"byteLength":1408,
			"byteOffset":17244,
			"target":34962
		},
		{
			"buffer":0,
			"byteLength":528,
			"byteOffset":18652,
			"target":34963
		},
		{
			"buffer":0,
			"byteLength":1920,
			"byteOffset":19180,
			"target":34962
		},
		{
			"buffer":0,
			"byteLength":1920,
			"byteOffset":21100,
			"target":34962
		},
		{
			"buffer":0,
			"byteLength":1280,
			"byteOffset":23020,
			"target":34962
		},
		{
			"buffer":0,
			"byteLength":480,
			"byteOffset":24300,
			"target":34963
		}
	],
	"samplers":[
		{
			"magFilter":9728,
			"minFilter":9984
		}
	],
	"buffers":[
		{
			"byteLength":24780,
			"uri":"farmland.bin"
		}
	]
}
