{
	"asset":{
		"generator":"Khronos glTF Blender I/O v4.2.70",
		"version":"2.0"
	},
	"scene":0,
	"scenes":[
		{
			"name":"Scene",
			"nodes":[
				3
			]
		}
	],
	"nodes":[
		{
			"name":"Bone",
			"translation":[
				-2.6640492478691158e-08,
				-2.664048714962064e-08,
				1.386764836297516e-08
			]
		},
		{
			"name":"neutral_bone",
			"rotation":[
				-0.7071067690849304,
				0,
				0,
				0.7071067690849304
			]
		},
		{
			"mesh":0,
			"name":"house",
			"skin":0
		},
		{
			"children":[
				2,
				0,
				1
			],
			"name":"Armature",
			"rotation":[
				0.5,
				-0.4999999403953552,
				-0.5,
				0.5000000596046448
			],
			"translation":[
				-1.931838870048523,
				1.0624487400054932,
				1.2461313009262085
			]
		}
	],
	"animations":[
		{
			"channels":[
				{
					"sampler":0,
					"target":{
						"node":0,
						"path":"translation"
					}
				},
				{
					"sampler":1,
					"target":{
						"node":0,
						"path":"rotation"
					}
				},
				{
					"sampler":2,
					"target":{
						"node":0,
						"path":"scale"
					}
				}
			],
			"name":"door",
			"samplers":[
				{
					"input":9,
					"interpolation":"STEP",
					"output":10
				},
				{
					"input":11,
					"interpolation":"LINEAR",
					"output":12
				},
				{
					"input":9,
					"interpolation":"STEP",
					"output":13
				}
			]
		}
	],
	"materials":[
		{
			"doubleSided":true,
			"emissiveFactor":[
				1,
				1,
				1
			],
			"emissiveTexture":{
				"index":0
			},
			"name":"house",
			"pbrMetallicRoughness":{
				"baseColorFactor":[
					0,
					0,
					0,
					1
				]
			}
		}
	],
	"meshes":[
		{
			"name":"Cube.004",
			"primitives":[
				{
					"attributes":{
						"POSITION":0,
						"NORMAL":1,
						"TEXCOORD_0":2,
						"COLOR_0":3,
						"COLOR_1":4,
						"JOINTS_0":5,
						"WEIGHTS_0":6
					},
					"indices":7,
					"material":0
				}
			]
		}
	],
	"textures":[
		{
			"sampler":0,
			"source":0
		}
	],
	"images":[
		{
			"mimeType":"image/png",
			"name":"buildings",
			"uri":"buildings.png"
		}
	],
	"skins":[
		{
			"inverseBindMatrices":8,
			"joints":[
				0,
				1
			],
			"name":"Armature"
		}
	],
	"accessors":[
		{
			"bufferView":0,
			"componentType":5126,
			"count":102,
			"max":[
				2.7904868125915527,
				3.768707036972046,
				1.678352952003479
			],
			"min":[
				-2.7095139026641846,
				2.9802322387695312e-08,
				-1.7857495546340942
			],
			"type":"VEC3"
		},
		{
			"bufferView":1,
			"componentType":5126,
			"count":102,
			"type":"VEC3"
		},
		{
			"bufferView":2,
			"componentType":5126,
			"count":102,
			"type":"VEC2"
		},
		{
			"bufferView":3,
			"componentType":5121,
			"count":102,
			"normalized":true,
			"type":"VEC4"
		},
		{
			"bufferView":4,
			"componentType":5126,
			"count":102,
			"type":"VEC3"
		},
		{
			"bufferView":5,
			"componentType":5121,
			"count":102,
			"type":"VEC4"
		},
		{
			"bufferView":6,
			"componentType":5126,
			"count":102,
			"type":"VEC4"
		},
		{
			"bufferView":7,
			"componentType":5123,
			"count":156,
			"type":"SCALAR"
		},
		{
			"bufferView":8,
			"componentType":5126,
			"count":2,
			"type":"MAT4"
		},
		{
			"bufferView":9,
			"componentType":5126,
			"count":2,
			"max":[
				0.5
			],
			"min":[
				0
			],
			"type":"SCALAR"
		},
		{
			"bufferView":10,
			"componentType":5126,
			"count":2,
			"type":"VEC3"
		},
		{
			"bufferView":11,
			"componentType":5126,
			"count":13,
			"max":[
				0.5
			],
			"min":[
				0
			],
			"type":"SCALAR"
		},
		{
			"bufferView":12,
			"componentType":5126,
			"count":13,
			"type":"VEC4"
		},
		{
			"bufferView":13,
			"componentType":5126,
			"count":2,
			"type":"VEC3"
		}
	],
	"bufferViews":[
		{
			"buffer":0,
			"byteLength":1224,
			"byteOffset":0,
			"target":34962
		},
		{
			"buffer":0,
			"byteLength":1224,
			"byteOffset":1224,
			"target":34962
		},
		{
			"buffer":0,
			"byteLength":816,
			"byteOffset":2448,
			"target":34962
		},
		{
			"buffer":0,
			"byteLength":408,
			"byteOffset":3264,
			"target":34962
		},
		{
			"buffer":0,
			"byteLength":1224,
			"byteOffset":3672,
			"target":34962
		},
		{
			"buffer":0,
			"byteLength":408,
			"byteOffset":4896,
			"target":34962
		},
		{
			"buffer":0,
			"byteLength":1632,
			"byteOffset":5304,
			"target":34962
		},
		{
			"buffer":0,
			"byteLength":312,
			"byteOffset":6936,
			"target":34963
		},
		{
			"buffer":0,
			"byteLength":128,
			"byteOffset":7248
		},
		{
			"buffer":0,
			"byteLength":8,
			"byteOffset":7376
		},
		{
			"buffer":0,
			"byteLength":24,
			"byteOffset":7384
		},
		{
			"buffer":0,
			"byteLength":52,
			"byteOffset":7408
		},
		{
			"buffer":0,
			"byteLength":208,
			"byteOffset":7460
		},
		{
			"buffer":0,
			"byteLength":24,
			"byteOffset":7668
		}
	],
	"samplers":[
		{
			"magFilter":9728,
			"minFilter":9984
		}
	],
	"buffers":[
		{
			"byteLength":7692,
			"uri":"house.bin"
		}
	]
}
