{
	"asset":{
		"generator":"Khronos glTF Blender I/O v4.2.70",
		"version":"2.0"
	},
	"scene":0,
	"scenes":[
		{
			"name":"Scene",
			"nodes":[
				0,
				1,
				2
			]
		}
	],
	"nodes":[
		{
			"mesh":0,
			"name":"wheat",
			"rotation":[
				0,
				-0.3826834261417389,
				0,
				0.9238795638084412
			],
			"translation":[
				-1.3419264554977417,
				0.7000000476837158,
				-2.1890037059783936
			]
		},
		{
			"mesh":1,
			"name":"fence",
			"rotation":[
				0,
				0,
				-0.06375694274902344,
				0.9979655742645264
			],
			"scale":[
				0.125,
				0.5,
				0.125
			],
			"translation":[
				4.5,
				0.3560592830181122,
				4.486625671386719
			]
		},
		{
			"mesh":2,
			"name":"farmland",
			"translation":[
				0.07821035385131836,
				0.10588405281305313,
				-0.021975278854370117
			]
		}
	],
	"materials":[
		{
			"doubleSided":true,
			"emissiveFactor":[
				1,
				1,
				1
			],
			"emissiveTexture":{
				"index":0
			},
			"name":"farmland",
			"pbrMetallicRoughness":{
				"baseColorFactor":[
					0,
					0,
					0,
					1
				]
			}
		}
	],
	"meshes":[
		{
			"name":"Plane.038",
			"primitives":[
				{
					"attributes":{
						"POSITION":0,
						"NORMAL":1,
						"TEXCOORD_0":2
					},
					"indices":3,
					"material":0
				}
			]
		},
		{
			"name":"Cube.002",
			"primitives":[
				{
					"attributes":{
						"POSITION":4,
						"NORMAL":5,
						"TEXCOORD_0":6
					},
					"indices":7,
					"material":0
				}
			]
		},
		{
			"name":"Plane.047",
			"primitives":[
				{
					"attributes":{
						"POSITION":8,
						"NORMAL":9,
						"TEXCOORD_0":10
					},
					"indices":11,
					"material":0
				}
			]
		}
	],
	"textures":[
		{
			"sampler":0,
			"source":0
		}
	],
	"images":[
		{
			"mimeType":"image/png",
			"name":"buildings",
			"uri":"buildings.png"
		}
	],
	"accessors":[
		{
			"bufferView":0,
			"componentType":5126,
			"count":352,
			"max":[
				7.661129474639893,
				0.5,
				6.049273490905762
			],
			"min":[
				-2.552910804748535,
				-0.5,
				-4.782243251800537
			],
			"type":"VEC3"
		},
		{
			"bufferView":1,
			"componentType":5126,
			"count":352,
			"type":"VEC3"
		},
		{
			"bufferView":2,
			"componentType":5126,
			"count":352,
			"type":"VEC2"
		},
		{
			"bufferView":3,
			"componentType":5123,
			"count":528,
			"type":"SCALAR"
		},
		{
			"bufferView":4,
			"componentType":5126,
			"count":336,
			"max":[
				1.3543500900268555,
				1.3092246055603027,
				1
			],
			"min":[
				-73.06207275390625,
				-3.0287227630615234,
				-73.00000762939453
			],
			"type":"VEC3"
		},
		{
			"bufferView":5,
			"componentType":5126,
			"count":336,
			"type":"VEC3"
		},
		{
			"bufferView":6,
			"componentType":5126,
			"count":336,
			"type":"VEC2"
		},
		{
			"bufferView":7,
			"componentType":5123,
			"count":504,
			"type":"SCALAR"
		},
		{
			"bufferView":8,
			"componentType":5126,
			"count":20,
			"max":[
				4.199999809265137,
				0.10000000149011612,
				4.199999809265137
			],
			"min":[
				-4.199999809265137,
				-0.10000000149011612,
				-4.199999809265137
			],
			"type":"VEC3"
		},
		{
			"bufferView":9,
			"componentType":5126,
			"count":20,
			"type":"VEC3"
		},
		{
			"bufferView":10,
			"componentType":5126,
			"count":20,
			"type":"VEC2"
		},
		{
			"bufferView":11,
			"componentType":5123,
			"count":30,
			"type":"SCALAR"
		}
	],
	"bufferViews":[
		{
			"buffer":0,
			"byteLength":4224,
			"byteOffset":0,
			"target":34962
		},
		{
			"buffer":0,
			"byteLength":4224,
			"byteOffset":4224,
			"target":34962
		},
		{
			"buffer":0,
			"byteLength":2816,
			"byteOffset":8448,
			"target":34962
		},
		{
			"buffer":0,
			"byteLength":1056,
			"byteOffset":11264,
			"target":34963
		},
		{
			"buffer":0,
			"byteLength":4032,
			"byteOffset":12320,
			"target":34962
		},
		{
			"buffer":0,
			"byteLength":4032,
			"byteOffset":16352,
			"target":34962
		},
		{
			"buffer":0,
			"byteLength":2688,
			"byteOffset":20384,
			"target":34962
		},
		{
			"buffer":0,
			"byteLength":1008,
			"byteOffset":23072,
			"target":34963
		},
		{
			"buffer":0,
			"byteLength":240,
			"byteOffset":24080,
			"target":34962
		},
		{
			"buffer":0,
			"byteLength":240,
			"byteOffset":24320,
			"target":34962
		},
		{
			"buffer":0,
			"byteLength":160,
			"byteOffset":24560,
			"target":34962
		},
		{
			"buffer":0,
			"byteLength":60,
			"byteOffset":24720,
			"target":34963
		}
	],
	"samplers":[
		{
			"magFilter":9728,
			"minFilter":9984
		}
	],
	"buffers":[
		{
			"byteLength":24780,
			"uri":"farmland.bin"
		}
	]
}
