{
	"asset":{
		"generator":"Khronos glTF Blender I/O v4.2.70",
		"version":"2.0"
	},
	"scene":0,
	"scenes":[
		{
			"name":"Scene",
			"nodes":[
				3
			]
		}
	],
	"nodes":[
		{
			"name":"Bone.001",
			"rotation":[
				0.7071067690849304,
				-1.376787679419067e-07,
				-1.376787679419067e-07,
				0.7071067690849304
			],
			"translation":[
				1.9441856145858765,
				1.3292499780654907,
				1.2093725204467773
			]
		},
		{
			"children":[
				0
			],
			"name":"Bone",
			"rotation":[
				0,
				-1.2789841963839356e-28,
				0,
				1
			],
			"translation":[
				-4.444444812179427e-12,
				1.064348609247645e-11,
				-2.128174719784326e-11
			]
		},
		{
			"mesh":0,
			"name":"house",
			"skin":0
		},
		{
			"children":[
				2,
				1
			],
			"name":"Armature",
			"rotation":[
				0,
				0,
				-1,
				7.549790126404332e-08
			],
			"translation":[
				7.047131657600403e-05,
				2.3047688007354736,
				0.05284668505191803
			]
		}
	],
	"animations":[
		{
			"channels":[
				{
					"sampler":0,
					"target":{
						"node":1,
						"path":"translation"
					}
				},
				{
					"sampler":1,
					"target":{
						"node":1,
						"path":"rotation"
					}
				},
				{
					"sampler":2,
					"target":{
						"node":1,
						"path":"scale"
					}
				},
				{
					"sampler":3,
					"target":{
						"node":0,
						"path":"translation"
					}
				},
				{
					"sampler":4,
					"target":{
						"node":0,
						"path":"rotation"
					}
				},
				{
					"sampler":5,
					"target":{
						"node":0,
						"path":"scale"
					}
				}
			],
			"name":"door",
			"samplers":[
				{
					"input":9,
					"interpolation":"STEP",
					"output":10
				},
				{
					"input":9,
					"interpolation":"STEP",
					"output":11
				},
				{
					"input":9,
					"interpolation":"STEP",
					"output":12
				},
				{
					"input":9,
					"interpolation":"STEP",
					"output":13
				},
				{
					"input":14,
					"interpolation":"LINEAR",
					"output":15
				},
				{
					"input":9,
					"interpolation":"STEP",
					"output":16
				}
			]
		}
	],
	"materials":[
		{
			"doubleSided":true,
			"emissiveFactor":[
				1,
				1,
				1
			],
			"emissiveTexture":{
				"index":0
			},
			"name":"house",
			"pbrMetallicRoughness":{
				"baseColorFactor":[
					0,
					0,
					0,
					1
				]
			}
		}
	],
	"meshes":[
		{
			"name":"Cube.004",
			"primitives":[
				{
					"attributes":{
						"POSITION":0,
						"NORMAL":1,
						"TEXCOORD_0":2,
						"COLOR_0":3,
						"COLOR_1":4,
						"JOINTS_0":5,
						"WEIGHTS_0":6
					},
					"indices":7,
					"material":0
				}
			]
		}
	],
	"textures":[
		{
			"sampler":0,
			"source":0
		}
	],
	"images":[
		{
			"mimeType":"image/png",
			"name":"buildings",
			"uri":"buildings.png"
		}
	],
	"skins":[
		{
			"inverseBindMatrices":8,
			"joints":[
				1,
				0
			],
			"name":"Armature"
		}
	],
	"accessors":[
		{
			"bufferView":0,
			"componentType":5126,
			"count":106,
			"max":[
				2.790487051010132,
				3.768707275390625,
				1.7312062978744507
			],
			"min":[
				-2.7095141410827637,
				2.9744114726781845e-08,
				-1.732896327972412
			],
			"type":"VEC3"
		},
		{
			"bufferView":1,
			"componentType":5126,
			"count":106,
			"type":"VEC3"
		},
		{
			"bufferView":2,
			"componentType":5126,
			"count":106,
			"type":"VEC2"
		},
		{
			"bufferView":3,
			"componentType":5121,
			"count":106,
			"normalized":true,
			"type":"VEC4"
		},
		{
			"bufferView":4,
			"componentType":5126,
			"count":106,
			"type":"VEC3"
		},
		{
			"bufferView":5,
			"componentType":5121,
			"count":106,
			"type":"VEC4"
		},
		{
			"bufferView":6,
			"componentType":5126,
			"count":106,
			"type":"VEC4"
		},
		{
			"bufferView":7,
			"componentType":5123,
			"count":162,
			"type":"SCALAR"
		},
		{
			"bufferView":8,
			"componentType":5126,
			"count":2,
			"type":"MAT4"
		},
		{
			"bufferView":9,
			"componentType":5126,
			"count":2,
			"max":[
				0.5
			],
			"min":[
				0
			],
			"type":"SCALAR"
		},
		{
			"bufferView":10,
			"componentType":5126,
			"count":2,
			"type":"VEC3"
		},
		{
			"bufferView":11,
			"componentType":5126,
			"count":2,
			"type":"VEC4"
		},
		{
			"bufferView":12,
			"componentType":5126,
			"count":2,
			"type":"VEC3"
		},
		{
			"bufferView":13,
			"componentType":5126,
			"count":2,
			"type":"VEC3"
		},
		{
			"bufferView":14,
			"componentType":5126,
			"count":13,
			"max":[
				0.5
			],
			"min":[
				0
			],
			"type":"SCALAR"
		},
		{
			"bufferView":15,
			"componentType":5126,
			"count":13,
			"type":"VEC4"
		},
		{
			"bufferView":16,
			"componentType":5126,
			"count":2,
			"type":"VEC3"
		}
	],
	"bufferViews":[
		{
			"buffer":0,
			"byteLength":1272,
			"byteOffset":0,
			"target":34962
		},
		{
			"buffer":0,
			"byteLength":1272,
			"byteOffset":1272,
			"target":34962
		},
		{
			"buffer":0,
			"byteLength":848,
			"byteOffset":2544,
			"target":34962
		},
		{
			"buffer":0,
			"byteLength":424,
			"byteOffset":3392,
			"target":34962
		},
		{
			"buffer":0,
			"byteLength":1272,
			"byteOffset":3816,
			"target":34962
		},
		{
			"buffer":0,
			"byteLength":424,
			"byteOffset":5088,
			"target":34962
		},
		{
			"buffer":0,
			"byteLength":1696,
			"byteOffset":5512,
			"target":34962
		},
		{
			"buffer":0,
			"byteLength":324,
			"byteOffset":7208,
			"target":34963
		},
		{
			"buffer":0,
			"byteLength":128,
			"byteOffset":7532
		},
		{
			"buffer":0,
			"byteLength":8,
			"byteOffset":7660
		},
		{
			"buffer":0,
			"byteLength":24,
			"byteOffset":7668
		},
		{
			"buffer":0,
			"byteLength":32,
			"byteOffset":7692
		},
		{
			"buffer":0,
			"byteLength":24,
			"byteOffset":7724
		},
		{
			"buffer":0,
			"byteLength":24,
			"byteOffset":7748
		},
		{
			"buffer":0,
			"byteLength":52,
			"byteOffset":7772
		},
		{
			"buffer":0,
			"byteLength":208,
			"byteOffset":7824
		},
		{
			"buffer":0,
			"byteLength":24,
			"byteOffset":8032
		}
	],
	"samplers":[
		{
			"magFilter":9728,
			"minFilter":9984
		}
	],
	"buffers":[
		{
			"byteLength":8056,
			"uri":"house.bin"
		}
	]
}
