{
	"asset":{
		"generator":"Khronos glTF Blender I/O v4.2.70",
		"version":"2.0"
	},
	"scene":0,
	"scenes":[
		{
			"name":"Scene",
			"nodes":[
				3
			]
		}
	],
	"nodes":[
		{
			"name":"blades",
			"rotation":[
				0.7071066498756409,
				-5.36670768269687e-07,
				-5.366707114262681e-07,
				0.70710688829422
			],
			"translation":[
				0,
				1.5555554628372192,
				0.5555558800697327
			]
		},
		{
			"children":[
				0
			],
			"name":"building",
			"rotation":[
				5.67658631211998e-08,
				0,
				0,
				1
			],
			"translation":[
				0,
				-0.1720530241727829,
				-5.195856900286344e-08
			]
		},
		{
			"mesh":0,
			"name":"windmill",
			"skin":0
		},
		{
			"children":[
				2,
				1
			],
			"name":"Armature",
			"scale":[
				4.5,
				4.5,
				4.5
			],
			"translation":[
				0,
				0.7742385864257812,
				0
			]
		}
	],
	"animations":[
		{
			"channels":[
				{
					"sampler":0,
					"target":{
						"node":1,
						"path":"translation"
					}
				},
				{
					"sampler":1,
					"target":{
						"node":1,
						"path":"rotation"
					}
				},
				{
					"sampler":2,
					"target":{
						"node":1,
						"path":"scale"
					}
				},
				{
					"sampler":3,
					"target":{
						"node":0,
						"path":"translation"
					}
				},
				{
					"sampler":4,
					"target":{
						"node":0,
						"path":"rotation"
					}
				},
				{
					"sampler":5,
					"target":{
						"node":0,
						"path":"scale"
					}
				}
			],
			"name":"blades",
			"samplers":[
				{
					"input":7,
					"interpolation":"STEP",
					"output":8
				},
				{
					"input":7,
					"interpolation":"STEP",
					"output":9
				},
				{
					"input":7,
					"interpolation":"STEP",
					"output":10
				},
				{
					"input":7,
					"interpolation":"STEP",
					"output":11
				},
				{
					"input":12,
					"interpolation":"LINEAR",
					"output":13
				},
				{
					"input":7,
					"interpolation":"STEP",
					"output":14
				}
			]
		}
	],
	"materials":[
		{
			"doubleSided":true,
			"emissiveFactor":[
				1,
				1,
				1
			],
			"emissiveTexture":{
				"index":0
			},
			"name":"windmill",
			"pbrMetallicRoughness":{
				"baseColorFactor":[
					0,
					0,
					0,
					1
				]
			}
		}
	],
	"meshes":[
		{
			"name":"Cylinder.004",
			"primitives":[
				{
					"attributes":{
						"POSITION":0,
						"NORMAL":1,
						"TEXCOORD_0":2,
						"JOINTS_0":3,
						"WEIGHTS_0":4
					},
					"indices":5,
					"material":0
				}
			]
		}
	],
	"textures":[
		{
			"sampler":0,
			"source":0
		}
	],
	"images":[
		{
			"mimeType":"image/png",
			"name":"buildings",
			"uri":"buildings.png"
		}
	],
	"skins":[
		{
			"inverseBindMatrices":6,
			"joints":[
				1,
				0
			],
			"name":"Armature"
		}
	],
	"accessors":[
		{
			"bufferView":0,
			"componentType":5126,
			"count":260,
			"max":[
				3.6769556999206543,
				10.676956176757812,
				3
			],
			"min":[
				-3.676955461502075,
				-7.060972358023665e-14,
				-2.598076581954956
			],
			"type":"VEC3"
		},
		{
			"bufferView":1,
			"componentType":5126,
			"count":260,
			"type":"VEC3"
		},
		{
			"bufferView":2,
			"componentType":5126,
			"count":260,
			"type":"VEC2"
		},
		{
			"bufferView":3,
			"componentType":5121,
			"count":260,
			"type":"VEC4"
		},
		{
			"bufferView":4,
			"componentType":5126,
			"count":260,
			"type":"VEC4"
		},
		{
			"bufferView":5,
			"componentType":5123,
			"count":408,
			"type":"SCALAR"
		},
		{
			"bufferView":6,
			"componentType":5126,
			"count":2,
			"type":"MAT4"
		},
		{
			"bufferView":7,
			"componentType":5126,
			"count":2,
			"max":[
				2.5
			],
			"min":[
				0
			],
			"type":"SCALAR"
		},
		{
			"bufferView":8,
			"componentType":5126,
			"count":2,
			"type":"VEC3"
		},
		{
			"bufferView":9,
			"componentType":5126,
			"count":2,
			"type":"VEC4"
		},
		{
			"bufferView":10,
			"componentType":5126,
			"count":2,
			"type":"VEC3"
		},
		{
			"bufferView":11,
			"componentType":5126,
			"count":2,
			"type":"VEC3"
		},
		{
			"bufferView":12,
			"componentType":5126,
			"count":61,
			"max":[
				2.5
			],
			"min":[
				0
			],
			"type":"SCALAR"
		},
		{
			"bufferView":13,
			"componentType":5126,
			"count":61,
			"type":"VEC4"
		},
		{
			"bufferView":14,
			"componentType":5126,
			"count":2,
			"type":"VEC3"
		}
	],
	"bufferViews":[
		{
			"buffer":0,
			"byteLength":3120,
			"byteOffset":0,
			"target":34962
		},
		{
			"buffer":0,
			"byteLength":3120,
			"byteOffset":3120,
			"target":34962
		},
		{
			"buffer":0,
			"byteLength":2080,
			"byteOffset":6240,
			"target":34962
		},
		{
			"buffer":0,
			"byteLength":1040,
			"byteOffset":8320,
			"target":34962
		},
		{
			"buffer":0,
			"byteLength":4160,
			"byteOffset":9360,
			"target":34962
		},
		{
			"buffer":0,
			"byteLength":816,
			"byteOffset":13520,
			"target":34963
		},
		{
			"buffer":0,
			"byteLength":128,
			"byteOffset":14336
		},
		{
			"buffer":0,
			"byteLength":8,
			"byteOffset":14464
		},
		{
			"buffer":0,
			"byteLength":24,
			"byteOffset":14472
		},
		{
			"buffer":0,
			"byteLength":32,
			"byteOffset":14496
		},
		{
			"buffer":0,
			"byteLength":24,
			"byteOffset":14528
		},
		{
			"buffer":0,
			"byteLength":24,
			"byteOffset":14552
		},
		{
			"buffer":0,
			"byteLength":244,
			"byteOffset":14576
		},
		{
			"buffer":0,
			"byteLength":976,
			"byteOffset":14820
		},
		{
			"buffer":0,
			"byteLength":24,
			"byteOffset":15796
		}
	],
	"samplers":[
		{
			"magFilter":9728,
			"minFilter":9984
		}
	],
	"buffers":[
		{
			"byteLength":15820,
			"uri":"windmill.bin"
		}
	]
}
