{
	"asset":{
		"generator":"Khronos glTF Blender I/O v4.2.70",
		"version":"2.0"
	},
	"scene":0,
	"scenes":[
		{
			"name":"Scene",
			"nodes":[
				0,
				1,
				2,
				3,
				4,
				5
			]
		}
	],
	"nodes":[
		{
			"mesh":0,
			"name":"trunk",
			"rotation":[
				0,
				0,
				-0.7071068286895752,
				0.7071068286895752
			],
			"scale":[
				1.5,
				1,
				0.5
			],
			"translation":[
				0,
				1.5,
				0
			]
		},
		{
			"mesh":1,
			"name":"branch2",
			"rotation":[
				0.7118209600448608,
				-0.5618708729743958,
				-0.017355315387248993,
				0.42108312249183655
			],
			"scale":[
				1.5,
				1,
				0.5
			],
			"translation":[
				1.1123968362808228,
				3.1881203651428223,
				-0.017542660236358643
			]
		},
		{
			"mesh":2,
			"name":"branch3",
			"rotation":[
				0.012712697498500347,
				-0.6686007380485535,
				-0.7375800609588623,
				0.09373978525400162
			],
			"scale":[
				-1.4999998807907104,
				-0.9999999403953552,
				-0.5
			],
			"translation":[
				-0.31169602274894714,
				3.9739315509796143,
				-1.1094474792480469
			]
		},
		{
			"mesh":3,
			"name":"branch1",
			"rotation":[
				-0.44151708483695984,
				-0.8509541153907776,
				-0.23520146310329437,
				0.16006262600421906
			],
			"scale":[
				-1.5,
				-0.9999999403953552,
				-0.5
			],
			"translation":[
				-0.05605809763073921,
				2.4077041149139404,
				-0.8770917057991028
			]
		},
		{
			"mesh":4,
			"name":"branch0",
			"rotation":[
				0.5740454196929932,
				-0.04720962792634964,
				-0.08481135219335556,
				0.8130499124526978
			],
			"scale":[
				1.5,
				1,
				0.5
			],
			"translation":[
				-0.11236423254013062,
				3.776597499847412,
				0.927880585193634
			]
		},
		{
			"mesh":5,
			"name":"branch4",
			"rotation":[
				-0.38302427530288696,
				-0.588617205619812,
				-0.7114216089248657,
				0.026485202834010124
			],
			"scale":[
				-1.5,
				-0.9999999403953552,
				-0.5
			],
			"translation":[
				0.0506824254989624,
				4.618631362915039,
				0.01889665424823761
			]
		}
	],
	"materials":[
		{
			"doubleSided":true,
			"emissiveFactor":[
				1,
				1,
				1
			],
			"emissiveTexture":{
				"index":0
			},
			"name":"tree",
			"pbrMetallicRoughness":{
				"baseColorFactor":[
					0,
					0,
					0,
					1
				]
			}
		}
	],
	"meshes":[
		{
			"name":"Plane",
			"primitives":[
				{
					"attributes":{
						"POSITION":0,
						"NORMAL":1,
						"TEXCOORD_0":2
					},
					"indices":3,
					"material":0
				}
			]
		},
		{
			"name":"Plane.015",
			"primitives":[
				{
					"attributes":{
						"POSITION":4,
						"NORMAL":5,
						"TEXCOORD_0":6
					},
					"indices":7,
					"material":0
				}
			]
		},
		{
			"name":"Plane.018",
			"primitives":[
				{
					"attributes":{
						"POSITION":8,
						"NORMAL":9,
						"TEXCOORD_0":10
					},
					"indices":11,
					"material":0
				}
			]
		},
		{
			"name":"Plane.026",
			"primitives":[
				{
					"attributes":{
						"POSITION":12,
						"NORMAL":13,
						"TEXCOORD_0":14
					},
					"indices":15,
					"material":0
				}
			]
		},
		{
			"name":"Plane.028",
			"primitives":[
				{
					"attributes":{
						"POSITION":16,
						"NORMAL":17,
						"TEXCOORD_0":18
					},
					"indices":19,
					"material":0
				}
			]
		},
		{
			"name":"Plane.030",
			"primitives":[
				{
					"attributes":{
						"POSITION":20,
						"NORMAL":21,
						"TEXCOORD_0":22
					},
					"indices":23,
					"material":0
				}
			]
		}
	],
	"textures":[
		{
			"sampler":0,
			"source":0
		}
	],
	"images":[
		{
			"mimeType":"image/png",
			"name":"foliage",
			"uri":"foliage.png"
		}
	],
	"accessors":[
		{
			"bufferView":0,
			"componentType":5126,
			"count":8,
			"max":[
				1,
				0.5,
				1
			],
			"min":[
				-1,
				-0.5,
				-1
			],
			"type":"VEC3"
		},
		{
			"bufferView":1,
			"componentType":5126,
			"count":8,
			"type":"VEC3"
		},
		{
			"bufferView":2,
			"componentType":5126,
			"count":8,
			"type":"VEC2"
		},
		{
			"bufferView":3,
			"componentType":5123,
			"count":12,
			"type":"SCALAR"
		},
		{
			"bufferView":4,
			"componentType":5126,
			"count":16,
			"max":[
				0.8912398219108582,
				1.4669064283370972,
				4.537021636962891
			],
			"min":[
				-0.7719091773033142,
				-1.9329338073730469,
				-3.015045642852783
			],
			"type":"VEC3"
		},
		{
			"bufferView":5,
			"componentType":5126,
			"count":16,
			"type":"VEC3"
		},
		{
			"bufferView":6,
			"componentType":5126,
			"count":16,
			"type":"VEC2"
		},
		{
			"bufferView":7,
			"componentType":5123,
			"count":24,
			"type":"SCALAR"
		},
		{
			"bufferView":8,
			"componentType":5126,
			"count":24,
			"max":[
				1.316016435623169,
				1.5023255348205566,
				3.258305549621582
			],
			"min":[
				-1.1315994262695312,
				-1.511552095413208,
				-3.112240791320801
			],
			"type":"VEC3"
		},
		{
			"bufferView":9,
			"componentType":5126,
			"count":24,
			"type":"VEC3"
		},
		{
			"bufferView":10,
			"componentType":5126,
			"count":24,
			"type":"VEC2"
		},
		{
			"bufferView":11,
			"componentType":5123,
			"count":36,
			"type":"SCALAR"
		},
		{
			"bufferView":12,
			"componentType":5126,
			"count":4,
			"max":[
				0.33333343267440796,
				1.5099580252808664e-07,
				2
			],
			"min":[
				-0.3333333730697632,
				-1.5099580252808664e-07,
				-2
			],
			"type":"VEC3"
		},
		{
			"bufferView":13,
			"componentType":5126,
			"count":4,
			"type":"VEC3"
		},
		{
			"bufferView":14,
			"componentType":5126,
			"count":4,
			"type":"VEC2"
		},
		{
			"bufferView":15,
			"componentType":5123,
			"count":6,
			"type":"SCALAR"
		},
		{
			"bufferView":16,
			"componentType":5126,
			"count":40,
			"max":[
				1.5666673183441162,
				1.6555155515670776,
				3.4674434661865234
			],
			"min":[
				-1.7550063133239746,
				-2.1980514526367188,
				-4.179123878479004
			],
			"type":"VEC3"
		},
		{
			"bufferView":17,
			"componentType":5126,
			"count":40,
			"type":"VEC3"
		},
		{
			"bufferView":18,
			"componentType":5126,
			"count":40,
			"type":"VEC2"
		},
		{
			"bufferView":19,
			"componentType":5123,
			"count":60,
			"type":"SCALAR"
		},
		{
			"bufferView":20,
			"componentType":5126,
			"count":28,
			"max":[
				1.3438762426376343,
				1.655738115310669,
				4.586325645446777
			],
			"min":[
				-1.2861229181289673,
				-1.1278305053710938,
				-3.833505630493164
			],
			"type":"VEC3"
		},
		{
			"bufferView":21,
			"componentType":5126,
			"count":28,
			"type":"VEC3"
		},
		{
			"bufferView":22,
			"componentType":5126,
			"count":28,
			"type":"VEC2"
		},
		{
			"bufferView":23,
			"componentType":5123,
			"count":42,
			"type":"SCALAR"
		}
	],
	"bufferViews":[
		{
			"buffer":0,
			"byteLength":96,
			"byteOffset":0,
			"target":34962
		},
		{
			"buffer":0,
			"byteLength":96,
			"byteOffset":96,
			"target":34962
		},
		{
			"buffer":0,
			"byteLength":64,
			"byteOffset":192,
			"target":34962
		},
		{
			"buffer":0,
			"byteLength":24,
			"byteOffset":256,
			"target":34963
		},
		{
			"buffer":0,
			"byteLength":192,
			"byteOffset":280,
			"target":34962
		},
		{
			"buffer":0,
			"byteLength":192,
			"byteOffset":472,
			"target":34962
		},
		{
			"buffer":0,
			"byteLength":128,
			"byteOffset":664,
			"target":34962
		},
		{
			"buffer":0,
			"byteLength":48,
			"byteOffset":792,
			"target":34963
		},
		{
			"buffer":0,
			"byteLength":288,
			"byteOffset":840,
			"target":34962
		},
		{
			"buffer":0,
			"byteLength":288,
			"byteOffset":1128,
			"target":34962
		},
		{
			"buffer":0,
			"byteLength":192,
			"byteOffset":1416,
			"target":34962
		},
		{
			"buffer":0,
			"byteLength":72,
			"byteOffset":1608,
			"target":34963
		},
		{
			"buffer":0,
			"byteLength":48,
			"byteOffset":1680,
			"target":34962
		},
		{
			"buffer":0,
			"byteLength":48,
			"byteOffset":1728,
			"target":34962
		},
		{
			"buffer":0,
			"byteLength":32,
			"byteOffset":1776,
			"target":34962
		},
		{
			"buffer":0,
			"byteLength":12,
			"byteOffset":1808,
			"target":34963
		},
		{
			"buffer":0,
			"byteLength":480,
			"byteOffset":1820,
			"target":34962
		},
		{
			"buffer":0,
			"byteLength":480,
			"byteOffset":2300,
			"target":34962
		},
		{
			"buffer":0,
			"byteLength":320,
			"byteOffset":2780,
			"target":34962
		},
		{
			"buffer":0,
			"byteLength":120,
			"byteOffset":3100,
			"target":34963
		},
		{
			"buffer":0,
			"byteLength":336,
			"byteOffset":3220,
			"target":34962
		},
		{
			"buffer":0,
			"byteLength":336,
			"byteOffset":3556,
			"target":34962
		},
		{
			"buffer":0,
			"byteLength":224,
			"byteOffset":3892,
			"target":34962
		},
		{
			"buffer":0,
			"byteLength":84,
			"byteOffset":4116,
			"target":34963
		}
	],
	"samplers":[
		{
			"magFilter":9728,
			"minFilter":9984
		}
	],
	"buffers":[
		{
			"byteLength":4200,
			"uri":"tree.bin"
		}
	]
}
